<svg width="17" height="17" viewBox="0 0 17 17" fill="none" xmlns="http://www.w3.org/2000/svg">
<path fill-rule="evenodd" clip-rule="evenodd" d="M4.28624 14.1265C4.88124 14.1265 5.36541 14.6098 5.36541 15.2048C5.36541 15.7998 4.88124 16.284 4.28624 16.284C3.69124 16.284 3.20791 15.7998 3.20791 15.2048C3.20791 14.6098 3.69124 14.1265 4.28624 14.1265ZM13.6865 14.1265C14.2823 14.1265 14.7665 14.6098 14.7665 15.2048C14.7665 15.7998 14.2823 16.284 13.6865 16.284C13.0915 16.284 12.6082 15.7998 12.6082 15.2048C12.6082 14.6098 13.0915 14.1265 13.6865 14.1265ZM0.723076 0.00782957L2.45641 0.30783C2.73558 0.356996 2.94808 0.588663 2.97224 0.871996L3.16808 3.20616L3.89628 3.20648C4.01511 3.20653 4.13269 3.20658 4.24901 3.20663L5.58593 3.20727C5.6925 3.20732 5.79787 3.20738 5.90207 3.20743L7.37823 3.20824C7.47097 3.20829 7.56259 3.20835 7.65312 3.2084L8.68756 3.20906C8.76951 3.20912 8.85042 3.20917 8.93029 3.20923L9.84013 3.2099C9.91197 3.20996 9.98283 3.21001 10.0527 3.21007L10.846 3.21075C10.9084 3.21081 10.9699 3.21086 11.0305 3.21092L11.5519 3.21144C11.6072 3.2115 11.6617 3.21156 11.7153 3.21161L12.3191 3.21232C12.3662 3.21237 12.4125 3.21243 12.458 3.21249L12.9678 3.2132C13.0073 3.21326 13.0461 3.21332 13.0842 3.21338L13.4082 3.21392C13.4422 3.21398 13.4755 3.21405 13.5081 3.21411L13.869 3.21484C13.8966 3.2149 13.9236 3.21496 13.95 3.21502L14.1721 3.21558C14.1951 3.21564 14.2176 3.2157 14.2395 3.21576L14.4776 3.21651C14.4955 3.21658 14.5128 3.21664 14.5297 3.2167L14.6696 3.21727C14.6838 3.21734 14.6976 3.2174 14.7109 3.21747L14.8524 3.21824C14.8626 3.2183 14.8726 3.21836 14.8821 3.21843L14.9592 3.21901C14.9668 3.21908 14.9741 3.21915 14.9811 3.21921L15.0366 3.2198C15.042 3.21987 15.0471 3.21993 15.052 3.22L15.0897 3.2206C15.0933 3.22067 15.0966 3.22073 15.0998 3.2208L15.1237 3.2214C15.1259 3.22147 15.1279 3.22154 15.1298 3.22161L15.1471 3.22242C15.1482 3.22249 15.1492 3.22256 15.1501 3.22263C15.1582 3.22339 15.1594 3.22352 15.1606 3.22366C15.6247 3.29116 16.0331 3.53366 16.3114 3.907C16.5897 4.2795 16.7064 4.73866 16.6397 5.19866L15.8489 10.6637C15.6997 11.7037 14.7964 12.4878 13.7464 12.4878H4.64558C3.54808 12.4878 2.61891 11.6312 2.52974 10.5353L1.76641 1.457L0.510576 1.24033C0.169743 1.18033 -0.0577574 0.85783 0.000575956 0.516996C0.060576 0.176163 0.389743 -0.0455038 0.723076 0.00782957ZM3.7291 4.45645L3.27308 4.45616L3.77558 10.4328C3.81224 10.8928 4.18808 11.2378 4.64724 11.2378H13.7447C14.1789 11.2378 14.5497 10.9145 14.6114 10.4853L15.4031 5.0195C15.4214 4.8895 15.3889 4.7595 15.3097 4.6545C15.2314 4.54866 15.1164 4.48033 14.9864 4.462C14.9804 4.46223 14.966 4.46244 14.9436 4.46263L14.853 4.46315C14.834 4.46322 14.8132 4.4633 14.7905 4.46336L14.3184 4.46408C14.2786 4.46411 14.2372 4.46413 14.1942 4.46416L13.0842 4.46411C13.0223 4.46409 12.9592 4.46406 12.895 4.46403L11.6282 4.46326C11.5523 4.46321 11.4756 4.46315 11.3981 4.46309L10.6813 4.46252C10.5997 4.46245 10.5174 4.46238 10.4346 4.46231L9.67536 4.46164C9.58961 4.46156 9.50346 4.46149 9.41695 4.46141L8.89396 4.46093C8.80621 4.46084 8.71821 4.46076 8.63 4.46068L7.83191 4.45994C7.74292 4.45985 7.65388 4.45977 7.56484 4.45969L7.03096 4.45919C6.94212 4.45911 6.85337 4.45903 6.76478 4.45894L6.23544 4.45846C6.14765 4.45838 6.06012 4.45831 5.9729 4.45823L5.19747 4.45756C5.11254 4.45749 5.02806 4.45742 4.94409 4.45735L3.96415 4.45661C3.88507 4.45655 3.8067 4.4565 3.7291 4.45645ZM12.4063 6.28641C12.7513 6.28641 13.0313 6.56641 13.0313 6.91141C13.0313 7.25641 12.7513 7.53641 12.4063 7.53641H10.0963C9.75049 7.53641 9.47133 7.25641 9.47133 6.91141C9.47133 6.56641 9.75049 6.28641 10.0963 6.28641H12.4063Z" fill="#2F3137"/>
</svg>
