<svg width="76" height="34" viewBox="0 0 76 34" fill="none" xmlns="http://www.w3.org/2000/svg">
<path d="M12.7461 5.908C13.1141 5.908 13.3861 5.924 13.5621 5.956C13.7541 5.972 13.9621 6.044 14.1861 6.172C14.4261 6.3 14.5941 6.516 14.6901 6.82C14.7861 7.124 14.8341 7.532 14.8341 8.044C14.8341 8.556 14.7861 8.964 14.6901 9.268C14.5941 9.572 14.4261 9.788 14.1861 9.916C13.9461 10.028 13.7301 10.1 13.5381 10.132C13.3621 10.148 13.0821 10.156 12.6981 10.156H5.3541V12.58H10.0821C10.4661 12.58 10.7461 12.596 10.9221 12.628C11.1141 12.644 11.3301 12.716 11.5701 12.844C11.9861 13.084 12.1941 13.716 12.1941 14.74C12.1941 15.86 11.8901 16.524 11.2821 16.732C11.0261 16.812 10.6181 16.852 10.0581 16.852H5.3541V21.388C5.3541 21.772 5.3381 22.052 5.3061 22.228C5.2901 22.404 5.2181 22.612 5.0901 22.852C4.8661 23.284 4.2421 23.5 3.2181 23.5C2.0981 23.5 1.4421 23.196 1.2501 22.588C1.1541 22.332 1.1061 21.924 1.1061 21.364V8.02C1.1061 7.204 1.2581 6.652 1.5621 6.364C1.8661 6.06 2.4421 5.908 3.2901 5.908H12.7461ZM12.9111 17.188C12.9111 15.268 13.5831 13.684 14.9271 12.436C16.2711 11.188 17.8071 10.564 19.5351 10.564C21.2631 10.564 22.7911 11.188 24.1191 12.436C25.4471 13.668 26.1111 15.244 26.1111 17.164C26.1111 18.492 25.7671 19.676 25.0791 20.716C24.3911 21.74 23.5511 22.5 22.5591 22.996C21.5831 23.476 20.5671 23.716 19.5111 23.716C18.4551 23.716 17.4311 23.46 16.4391 22.948C15.4471 22.42 14.6071 21.652 13.9191 20.644C13.2471 19.62 12.9111 18.468 12.9111 17.188ZM17.9271 18.916C18.4391 19.3 18.9591 19.492 19.4871 19.492C20.0151 19.492 20.5431 19.292 21.0711 18.892C21.5991 18.492 21.8631 17.9 21.8631 17.116C21.8631 16.332 21.6151 15.748 21.1191 15.364C20.6231 14.98 20.0871 14.788 19.5111 14.788C18.9351 14.788 18.3991 14.988 17.9031 15.388C17.4071 15.788 17.1591 16.38 17.1591 17.164C17.1591 17.932 17.4151 18.516 17.9271 18.916ZM33.625 10.876C34.729 10.876 35.377 11.18 35.569 11.788C35.665 12.092 35.713 12.492 35.713 12.988C35.713 13.484 35.657 13.884 35.545 14.188C35.449 14.476 35.289 14.684 35.065 14.812C34.729 15.004 34.241 15.1 33.601 15.1L32.065 15.004V21.436C32.065 22.044 31.985 22.5 31.825 22.804C31.681 23.092 31.449 23.284 31.129 23.38C30.825 23.476 30.425 23.524 29.929 23.524C29.433 23.524 29.033 23.476 28.729 23.38C28.441 23.268 28.233 23.1 28.105 22.876C27.977 22.636 27.897 22.42 27.865 22.228C27.849 22.036 27.841 21.756 27.841 21.388V15.028H26.977C26.561 14.996 26.265 14.9 26.089 14.74C25.785 14.436 25.633 13.852 25.633 12.988C25.633 11.676 26.105 11.02 27.049 11.02H27.841V9.748C27.841 8.516 28.281 7.404 29.161 6.412C30.041 5.404 31.313 4.9 32.977 4.9C33.345 4.9 33.617 4.916 33.793 4.948C33.985 4.964 34.201 5.036 34.441 5.164C34.873 5.372 35.089 5.988 35.089 7.012C35.089 7.78 34.953 8.332 34.681 8.668C34.457 8.924 34.105 9.068 33.625 9.1C33.481 9.1 33.257 9.1 32.953 9.1C32.361 9.1 32.065 9.3 32.065 9.7V11.02L33.625 10.876ZM35.2489 17.188C35.2489 15.268 35.9209 13.684 37.2649 12.436C38.6089 11.188 40.1449 10.564 41.8729 10.564C43.6009 10.564 45.1289 11.188 46.4569 12.436C47.7849 13.668 48.4489 15.244 48.4489 17.164C48.4489 18.492 48.1049 19.676 47.4169 20.716C46.7289 21.74 45.8889 22.5 44.8969 22.996C43.9209 23.476 42.9049 23.716 41.8489 23.716C40.7929 23.716 39.7689 23.46 38.7769 22.948C37.7849 22.42 36.9449 21.652 36.2569 20.644C35.5849 19.62 35.2489 18.468 35.2489 17.188ZM40.2649 18.916C40.7769 19.3 41.2969 19.492 41.8249 19.492C42.3529 19.492 42.8809 19.292 43.4089 18.892C43.9369 18.492 44.2009 17.9 44.2009 17.116C44.2009 16.332 43.9529 15.748 43.4569 15.364C42.9609 14.98 42.4249 14.788 41.8489 14.788C41.2729 14.788 40.7369 14.988 40.2409 15.388C39.7449 15.788 39.4969 16.38 39.4969 17.164C39.4969 17.932 39.7529 18.516 40.2649 18.916ZM48.6795 17.188C48.6795 15.268 49.3515 13.684 50.6955 12.436C52.0395 11.188 53.5755 10.564 55.3035 10.564C57.0315 10.564 58.5595 11.188 59.8875 12.436C61.2155 13.668 61.8795 15.244 61.8795 17.164C61.8795 18.492 61.5355 19.676 60.8475 20.716C60.1595 21.74 59.3195 22.5 58.3275 22.996C57.3515 23.476 56.3355 23.716 55.2795 23.716C54.2235 23.716 53.1995 23.46 52.2075 22.948C51.2155 22.42 50.3755 21.652 49.6875 20.644C49.0155 19.62 48.6795 18.468 48.6795 17.188ZM53.6955 18.916C54.2075 19.3 54.7275 19.492 55.2555 19.492C55.7835 19.492 56.3115 19.292 56.8395 18.892C57.3675 18.492 57.6315 17.9 57.6315 17.116C57.6315 16.332 57.3835 15.748 56.8875 15.364C56.3915 14.98 55.8555 14.788 55.2795 14.788C54.7035 14.788 54.1675 14.988 53.6715 15.388C53.1755 15.788 52.9275 16.38 52.9275 17.164C52.9275 17.932 53.1835 18.516 53.6955 18.916ZM70.9422 5.596C71.0702 5.356 71.2862 5.188 71.5902 5.092C71.8942 4.996 72.2942 4.948 72.7902 4.948C73.3022 4.948 73.7102 4.996 74.0142 5.092C74.3182 5.188 74.5262 5.356 74.6382 5.596C74.7662 5.836 74.8382 6.052 74.8542 6.244C74.8862 6.42 74.9022 6.692 74.9022 7.06V21.388C74.9022 21.756 74.8862 22.036 74.8542 22.228C74.8382 22.404 74.7662 22.604 74.6382 22.828C74.3982 23.26 73.7182 23.476 72.5982 23.476C71.4942 23.476 70.8782 23.084 70.7502 22.3C70.0782 23.068 69.1422 23.452 67.9422 23.452C66.5022 23.452 65.1902 22.828 64.0062 21.58C62.8222 20.316 62.2302 18.852 62.2302 17.188C62.2302 15.508 62.8222 14.036 64.0062 12.772C65.2062 11.508 66.5182 10.876 67.9422 10.876C69.1262 10.876 70.0462 11.276 70.7022 12.076V7.036C70.7022 6.668 70.7102 6.396 70.7262 6.22C70.7582 6.028 70.8302 5.82 70.9422 5.596ZM67.0542 18.628C67.4702 19.06 67.9742 19.276 68.5662 19.276C69.1582 19.276 69.6462 19.06 70.0302 18.628C70.4302 18.196 70.6302 17.724 70.6302 17.212C70.6302 16.684 70.4382 16.196 70.0542 15.748C69.6862 15.3 69.1822 15.076 68.5422 15.076C67.9022 15.076 67.3902 15.3 67.0062 15.748C66.6222 16.18 66.4302 16.66 66.4302 17.188C66.4302 17.716 66.6382 18.196 67.0542 18.628Z" fill="#2F3137"/>
<path d="M7 32.5C7 32.5 24.8166 29.8504 36.3333 29.5255C48.6465 29.1781 68 32.5 68 32.5" stroke="#DB6885" stroke-width="2"/>
</svg>
