<svg width="118" height="46" viewBox="0 0 118 46" fill="none" xmlns="http://www.w3.org/2000/svg">
<path d="M18.609 1.60714C19.1974 1.60714 19.6323 1.63265 19.9137 1.68367C20.2208 1.70918 20.5533 1.82398 20.9115 2.02806C21.2953 2.23214 21.5639 2.57653 21.7174 3.06122C21.8709 3.54592 21.9477 4.19643 21.9477 5.01275C21.9477 5.82908 21.8709 6.47959 21.7174 6.96428C21.5639 7.44898 21.2953 7.79337 20.9115 7.99745C20.5278 8.17602 20.1824 8.29082 19.8754 8.34184C19.5939 8.36735 19.1462 8.3801 18.5322 8.3801H6.78914V12.2449H14.3492C14.9632 12.2449 15.411 12.2704 15.6924 12.3214C15.9994 12.3469 16.3448 12.4617 16.7285 12.6658C17.3937 13.0485 17.7263 14.0561 17.7263 15.6888C17.7263 17.4745 17.2402 18.5332 16.268 18.8648C15.8587 18.9923 15.2063 19.0561 14.3108 19.0561H6.78914V26.2883C6.78914 26.9005 6.76355 27.3469 6.71239 27.6276C6.6868 27.9082 6.57168 28.2398 6.367 28.6224C6.00883 29.3112 5.01105 29.6556 3.37367 29.6556C1.58279 29.6556 0.533846 29.1709 0.226838 28.2015C0.0733342 27.7934 -0.00341797 27.1429 -0.00341797 26.25V4.97449C-0.00341797 3.67347 0.23963 2.79337 0.725727 2.33418C1.21182 1.84949 2.13285 1.60714 3.4888 1.60714H18.609Z" fill="white"/>
<path d="M18.8728 19.5918C18.8728 16.5306 19.9473 14.0051 22.0964 12.0153C24.2454 10.0255 26.7015 9.03061 29.4646 9.03061C32.2276 9.03061 34.6709 10.0255 36.7944 12.0153C38.9179 13.9796 39.9796 16.4923 39.9796 19.5536C39.9796 21.6709 39.4296 23.5587 38.3294 25.2168C37.2293 26.8495 35.8862 28.0612 34.3 28.852C32.7393 29.6173 31.1147 30 29.4262 30C27.7377 30 26.1003 29.5918 24.5141 28.7755C22.9279 27.9337 21.5847 26.7092 20.4846 25.102C19.4101 23.4694 18.8728 21.6327 18.8728 19.5918ZM26.8934 22.3469C27.7121 22.9592 28.5436 23.2653 29.3878 23.2653C30.2321 23.2653 31.0764 22.9464 31.9206 22.3087C32.7649 21.6709 33.187 20.727 33.187 19.477C33.187 18.227 32.7905 17.2959 31.9974 16.6837C31.2043 16.0714 30.3472 15.7653 29.4262 15.7653C28.5052 15.7653 27.6481 16.0842 26.855 16.7219C26.0619 17.3597 25.6653 18.3036 25.6653 19.5536C25.6653 20.7781 26.0747 21.7092 26.8934 22.3469Z" fill="white"/>
<path d="M51.9943 9.52806C53.7596 9.52806 54.7958 10.0128 55.1028 10.9821C55.2563 11.4668 55.333 12.1046 55.333 12.8954C55.333 13.6862 55.2435 14.324 55.0644 14.8087C54.9109 15.2679 54.655 15.5995 54.2969 15.8036C53.7596 16.1097 52.9793 16.2628 51.9559 16.2628L49.4999 16.1097V26.3648C49.4999 27.3342 49.3719 28.0612 49.1161 28.5459C48.8858 29.0051 48.5149 29.3112 48.0032 29.4643C47.5171 29.6173 46.8775 29.6939 46.0844 29.6939C45.2913 29.6939 44.6517 29.6173 44.1656 29.4643C43.7051 29.2857 43.3725 29.0179 43.1678 28.6607C42.9631 28.2781 42.8352 27.9337 42.7841 27.6276C42.7585 27.3214 42.7457 26.875 42.7457 26.2883V16.148H41.3641C40.699 16.0969 40.2257 15.9439 39.9442 15.6888C39.4581 15.2041 39.2151 14.273 39.2151 12.8954C39.2151 10.8036 39.9698 9.75765 41.4793 9.75765H42.7457V7.72959C42.7457 5.76531 43.4492 3.99235 44.8564 2.41072C46.2635 0.803572 48.2974 0 50.9581 0C51.5466 0 51.9815 0.0255099 52.2629 0.0765296C52.5699 0.102041 52.9153 0.216837 53.2991 0.420918C53.9899 0.75255 54.3352 1.73469 54.3352 3.36735C54.3352 4.59184 54.1178 5.47194 53.6828 6.00765C53.3247 6.41582 52.7618 6.64541 51.9943 6.69643C51.764 6.69643 51.4059 6.69643 50.9198 6.69643C49.9732 6.69643 49.4999 7.01531 49.4999 7.65306V9.75765L51.9943 9.52806Z" fill="white"/>
<path d="M54.591 19.5918C54.591 16.5306 55.6655 14.0051 57.8146 12.0153C59.9636 10.0255 62.4197 9.03061 65.1828 9.03061C67.9458 9.03061 70.3891 10.0255 72.5126 12.0153C74.6361 13.9796 75.6978 16.4923 75.6978 19.5536C75.6978 21.6709 75.1477 23.5587 74.0476 25.2168C72.9475 26.8495 71.6044 28.0612 70.0181 28.852C68.4575 29.6173 66.8329 30 65.1444 30C63.4558 30 61.8185 29.5918 60.2323 28.7755C58.646 27.9337 57.3029 26.7092 56.2028 25.102C55.1282 23.4694 54.591 21.6327 54.591 19.5918ZM62.6116 22.3469C63.4303 22.9592 64.2617 23.2653 65.106 23.2653C65.9503 23.2653 66.7946 22.9464 67.6388 22.3087C68.4831 21.6709 68.9052 20.727 68.9052 19.477C68.9052 18.227 68.5087 17.2959 67.7156 16.6837C66.9225 16.0714 66.0654 15.7653 65.1444 15.7653C64.2234 15.7653 63.3663 16.0842 62.5732 16.7219C61.7801 17.3597 61.3835 18.3036 61.3835 19.5536C61.3835 20.7781 61.7929 21.7092 62.6116 22.3469Z" fill="white"/>
<path d="M76.0666 19.5918C76.0666 16.5306 77.1411 14.0051 79.2902 12.0153C81.4392 10.0255 83.8953 9.03061 86.6583 9.03061C89.4214 9.03061 91.8647 10.0255 93.9882 12.0153C96.1116 13.9796 97.1734 16.4923 97.1734 19.5536C97.1734 21.6709 96.6233 23.5587 95.5232 25.2168C94.4231 26.8495 93.0799 28.0612 91.4937 28.852C89.9331 29.6173 88.3085 30 86.62 30C84.9314 30 83.294 29.5918 81.7078 28.7755C80.1216 27.9337 78.7785 26.7092 77.6784 25.102C76.6038 23.4694 76.0666 21.6327 76.0666 19.5918ZM84.0872 22.3469C84.9058 22.9592 85.7373 23.2653 86.5816 23.2653C87.4259 23.2653 88.2701 22.9464 89.1144 22.3087C89.9587 21.6709 90.3808 20.727 90.3808 19.477C90.3808 18.227 89.9843 17.2959 89.1912 16.6837C88.3981 16.0714 87.541 15.7653 86.62 15.7653C85.699 15.7653 84.8419 16.0842 84.0488 16.7219C83.2557 17.3597 82.8591 18.3036 82.8591 19.5536C82.8591 20.7781 83.2685 21.7092 84.0872 22.3469Z" fill="white"/>
<path d="M111.665 1.10969C111.869 0.727041 112.215 0.459184 112.701 0.306123C113.187 0.153061 113.826 0.0765296 114.619 0.0765296C115.438 0.0765296 116.091 0.153061 116.577 0.306123C117.063 0.459184 117.395 0.727041 117.574 1.10969C117.779 1.49235 117.894 1.83674 117.92 2.14286C117.971 2.42347 117.997 2.85714 117.997 3.44388V26.2883C117.997 26.875 117.971 27.3214 117.92 27.6276C117.894 27.9082 117.779 28.227 117.574 28.5842C117.191 29.273 116.103 29.6173 114.312 29.6173C112.547 29.6173 111.562 28.9923 111.358 27.7423C110.283 28.9668 108.786 29.5791 106.868 29.5791C104.565 29.5791 102.467 28.5842 100.574 26.5944C98.6806 24.5791 97.734 22.2449 97.734 19.5918C97.734 16.9133 98.6806 14.5663 100.574 12.551C102.493 10.5357 104.591 9.52806 106.868 9.52806C108.761 9.52806 110.232 10.1658 111.281 11.4413V3.40561C111.281 2.81888 111.294 2.3852 111.319 2.10459C111.37 1.79847 111.485 1.46684 111.665 1.10969ZM105.448 21.8878C106.113 22.5765 106.919 22.9209 107.865 22.9209C108.812 22.9209 109.592 22.5765 110.206 21.8878C110.846 21.199 111.166 20.4464 111.166 19.6301C111.166 18.7883 110.859 18.0102 110.245 17.2959C109.656 16.5816 108.85 16.2245 107.827 16.2245C106.804 16.2245 105.985 16.5816 105.371 17.2959C104.757 17.9847 104.45 18.75 104.45 19.5918C104.45 20.4337 104.782 21.199 105.448 21.8878Z" fill="white"/>
<path fill-rule="evenodd" clip-rule="evenodd" d="M88.6058 43.4118C78.426 42.1514 65.8728 40.9723 56.16 41.2472C47.0322 41.5056 35.3708 42.6906 25.9597 43.8168C21.2609 44.3791 17.1355 44.9253 14.1852 45.3308C12.7102 45.5335 11.5293 45.701 10.7177 45.8178C10.3119 45.8762 9.99843 45.9219 9.78674 45.9529L9.46744 46C9.46728 46 9.46637 46.0002 9.23126 44.4141C8.99616 42.828 8.99632 42.8279 8.9966 42.8279L9.32439 42.7795C9.53882 42.7481 9.85514 42.702 10.2639 42.6432C11.0815 42.5256 12.2691 42.3571 13.7514 42.1534C16.7156 41.7459 20.8598 41.1973 25.5811 40.6323C35.0099 39.5039 46.7903 38.3041 56.0699 38.0414C66.0373 37.7593 78.7906 38.9651 88.9973 40.2289C94.1123 40.8622 98.6094 41.5129 101.828 42.0053C103.438 42.2515 104.728 42.4583 105.617 42.6037C106.062 42.6763 106.406 42.7337 106.64 42.7729L106.906 42.8179L106.997 42.8334C106.997 42.8334 106.998 42.8337 106.728 44.4141C106.458 45.9946 106.458 45.9946 106.457 45.9945L106.371 45.9798L106.112 45.936C105.883 45.8974 105.543 45.8409 105.103 45.769C104.224 45.6252 102.944 45.4202 101.346 45.1757C98.1501 44.6868 93.684 44.0406 88.6058 43.4118Z" fill="white"/>
</svg>
