<svg width="18" height="16" viewBox="0 0 18 16" fill="none" xmlns="http://www.w3.org/2000/svg">
<path d="M9.00008 15.9792L8.14592 15.2083C6.67369 13.8611 5.45841 12.6979 4.50008 11.7187C3.54175 10.7396 2.77786 9.86458 2.20841 9.09374C1.63897 8.32291 1.23966 7.62499 1.0105 6.99999C0.781331 6.37499 0.666748 5.74305 0.666748 5.10416C0.666748 3.85416 1.08689 2.80902 1.92716 1.96874C2.76744 1.12847 3.80564 0.708328 5.04175 0.708328C5.83341 0.708328 6.56605 0.895828 7.23966 1.27083C7.91328 1.64583 8.50008 2.18749 9.00008 2.89583C9.58341 2.14583 10.2015 1.59374 10.8542 1.23958C11.507 0.885411 12.2084 0.708328 12.9584 0.708328C14.1945 0.708328 15.2327 1.12847 16.073 1.96874C16.9133 2.80902 17.3334 3.85416 17.3334 5.10416C17.3334 5.74305 17.2188 6.37499 16.9897 6.99999C16.7605 7.62499 16.3612 8.32291 15.7917 9.09374C15.2223 9.86458 14.4584 10.7396 13.5001 11.7187C12.5417 12.6979 11.3265 13.8611 9.85425 15.2083L9.00008 15.9792ZM9.00008 14.3333C10.4029 13.0417 11.5591 11.934 12.4688 11.0104C13.3786 10.0868 14.1008 9.27777 14.6355 8.58333C15.1702 7.88888 15.5452 7.27083 15.7605 6.72916C15.9758 6.18749 16.0834 5.64583 16.0834 5.10416C16.0834 4.18749 15.7917 3.43402 15.2084 2.84374C14.6251 2.25347 13.8751 1.95833 12.9584 1.95833C12.2501 1.95833 11.5904 2.17708 10.9792 2.61458C10.3681 3.05208 9.87508 3.66666 9.50008 4.45833H8.47925C8.11814 3.68055 7.63203 3.06944 7.02091 2.62499C6.4098 2.18055 5.75008 1.95833 5.04175 1.95833C4.12508 1.95833 3.37508 2.25347 2.79175 2.84374C2.20841 3.43402 1.91675 4.18749 1.91675 5.10416C1.91675 5.64583 2.02439 6.19097 2.23966 6.73958C2.45494 7.28819 2.82994 7.91319 3.36466 8.61458C3.89939 9.31597 4.62508 10.125 5.54175 11.0417C6.45841 11.9583 7.61119 13.0556 9.00008 14.3333Z" fill="#2F3137"/>
</svg>
