<svg width="14" height="14" viewBox="0 0 14 14" fill="none" xmlns="http://www.w3.org/2000/svg">
<path d="M13.9635 5.37026C13.8719 5.08678 13.6204 4.88543 13.3229 4.85862L9.28216 4.49172L7.68432 0.751827C7.56651 0.477742 7.29819 0.300323 7.00007 0.300323C6.70195 0.300323 6.43364 0.477742 6.31582 0.752468L4.71798 4.49172L0.67656 4.85862C0.379616 4.88607 0.128816 5.08678 0.0366355 5.37026C-0.0555452 5.65375 0.0295858 5.96468 0.254216 6.16069L3.30857 8.83938L2.40791 12.8068C2.34201 13.0985 2.45523 13.4 2.69727 13.575C2.82737 13.669 2.97958 13.7168 3.13307 13.7168C3.26542 13.7168 3.39669 13.6812 3.51451 13.6107L7.00007 11.5275L10.4844 13.6107C10.7393 13.764 11.0607 13.7501 11.3022 13.575C11.5444 13.3995 11.6575 13.0978 11.5916 12.8068L10.6909 8.83938L13.7453 6.16122C13.9699 5.96468 14.0557 5.65428 13.9635 5.37026Z" fill="#FFC107"/>
</svg>
